<svg width="394" height="311" viewBox="0 0 394 311" fill="none" xmlns="http://www.w3.org/2000/svg">
<g clip-path="url(#clip0)">
<path d="M394 0H16.7905V248.878H394V0Z" fill="url(#paint0_linear)"/>
<path d="M389.756 29.4043H20.0911V241.351H389.756V29.4043Z" fill="white"/>
<path d="M389.756 5.17517H20.0911V29.4043H389.756V5.17517Z" fill="#5FBF00"/>
<path d="M385.513 44.6946H25.2778V229.589H385.513V44.6946Z" fill="url(#paint1_linear)"/>
<path opacity="0.5" d="M73.1362 47.9879H29.7571V82.5673H73.1362V47.9879Z" fill="#5FBF00"/>
<path d="M116.987 47.9879H73.6077V82.5673H116.987V47.9879Z" fill="white"/>
<path opacity="0.2" d="M160.837 47.9879H117.458V82.5673H160.837V47.9879Z" fill="#5FBF00"/>
<path d="M204.688 47.9879H161.309V82.5673H204.688V47.9879Z" fill="white"/>
<path d="M248.539 47.9879H205.159V82.5673H248.539V47.9879Z" fill="white"/>
<path opacity="0.5" d="M292.389 47.9879H249.01V82.5673H292.389V47.9879Z" fill="#5FBF00"/>
<path d="M336.24 47.9879H292.861V82.5673H336.24V47.9879Z" fill="white"/>
<path opacity="0.2" d="M380.09 47.9879H336.711V82.5673H380.09V47.9879Z" fill="#5FBF00"/>
<path opacity="0.2" d="M73.1362 83.273H29.7571V117.852H73.1362V83.273Z" fill="#5FBF00"/>
<path opacity="0.2" d="M116.987 83.273H73.6077V117.852H116.987V83.273Z" fill="#5FBF00"/>
<path d="M160.837 83.273H117.458V117.852H160.837V83.273Z" fill="white"/>
<path opacity="0.5" d="M204.688 83.273H161.309V117.852H204.688V83.273Z" fill="#5FBF00"/>
<path d="M248.539 83.273H205.159V117.852H248.539V83.273Z" fill="white"/>
<path opacity="0.2" d="M292.389 83.273H249.01V117.852H292.389V83.273Z" fill="#5FBF00"/>
<path opacity="0.5" d="M336.24 83.273H292.861V117.852H336.24V83.273Z" fill="#5FBF00"/>
<path d="M380.09 83.273H336.711V117.852H380.09V83.273Z" fill="white"/>
<path d="M73.1362 118.088H29.7571V152.667H73.1362V118.088Z" fill="white"/>
<path d="M116.987 118.088H73.6077V152.667H116.987V118.088Z" fill="white"/>
<path opacity="0.2" d="M160.837 118.088H117.458V152.667H160.837V118.088Z" fill="#5FBF00"/>
<path d="M204.688 118.088H161.309V152.667H204.688V118.088Z" fill="white"/>
<path opacity="0.2" d="M248.539 118.088H205.159V152.667H248.539V118.088Z" fill="#5FBF00"/>
<path d="M292.389 118.088H249.01V152.667H292.389V118.088Z" fill="white"/>
<path d="M336.24 118.088H292.861V152.667H336.24V118.088Z" fill="white"/>
<path opacity="0.2" d="M380.09 118.088H336.711V152.667H380.09V118.088Z" fill="#5FBF00"/>
<path d="M73.1362 152.902H29.7571V187.482H73.1362V152.902Z" fill="white"/>
<path opacity="0.5" d="M116.987 152.902H73.6077V187.482H116.987V152.902Z" fill="#5FBF00"/>
<path opacity="0.5" d="M160.837 152.902H117.458V187.482H160.837V152.902Z" fill="#5FBF00"/>
<path d="M204.688 152.902H161.309V187.482H204.688V152.902Z" fill="white"/>
<path d="M248.539 152.902H205.159V187.482H248.539V152.902Z" fill="white"/>
<path opacity="0.5" d="M292.389 152.902H249.01V187.482H292.389V152.902Z" fill="#5FBF00"/>
<path d="M336.24 152.902H292.861V187.482H336.24V152.902Z" fill="white"/>
<path opacity="0.5" d="M380.09 152.902H336.711V187.482H380.09V152.902Z" fill="#5FBF00"/>
<path opacity="0.5" d="M73.1362 188.188H29.7571V222.767H73.1362V188.188Z" fill="#5FBF00"/>
<path opacity="0.2" d="M116.987 188.188H73.6077V222.767H116.987V188.188Z" fill="#5FBF00"/>
<path d="M160.837 188.188H117.458V222.767H160.837V188.188Z" fill="white"/>
<path opacity="0.5" d="M204.688 188.188H161.309V222.767H204.688V188.188Z" fill="#5FBF00"/>
<path opacity="0.2" d="M248.539 188.188H205.159V222.767H248.539V188.188Z" fill="#5FBF00"/>
<path d="M292.389 188.188H249.01V222.767H292.389V188.188Z" fill="white"/>
<path opacity="0.2" d="M336.24 188.188H292.861V222.767H336.24V188.188Z" fill="#5FBF00"/>
<path d="M380.09 188.188H336.711V222.767H380.09V188.188Z" fill="white"/>
<path d="M46.4958 121.381H33.2935V134.554H46.4958V121.381Z" fill="#69F0AE"/>
<path d="M177.576 51.7516H164.374V64.9247H177.576V51.7516Z" fill="#69F0AE"/>
<path d="M176.162 121.381H162.959V134.554H176.162V121.381Z" fill="#69F0AE"/>
<path d="M220.955 154.784H207.753V167.957H220.955V154.784Z" fill="#69F0AE"/>
<path d="M308.185 121.381H294.983V134.554H308.185V121.381Z" fill="#69F0AE"/>
<path d="M80.8879 310.533C125.561 310.533 161.776 274.398 161.776 229.824C161.776 185.25 125.561 149.115 80.8879 149.115C36.2147 149.115 0 185.25 0 229.824C0 274.398 36.2147 310.533 80.8879 310.533Z" fill="url(#paint2_linear)"/>
<path d="M80.8879 308.355C124.355 308.355 159.593 273.195 159.593 229.824C159.593 186.453 124.355 151.293 80.8879 151.293C37.4204 151.293 2.18311 186.453 2.18311 229.824C2.18311 273.195 37.4204 308.355 80.8879 308.355Z" fill="#5FBF00"/>
<path d="M80.8878 293.629C116.204 293.629 144.834 265.063 144.834 229.824C144.834 194.586 116.204 166.019 80.8878 166.019C45.5712 166.019 16.9414 194.586 16.9414 229.824C16.9414 265.063 45.5712 293.629 80.8878 293.629Z" fill="white"/>
<path d="M80.8879 233.64C82.9998 233.64 84.7118 231.931 84.7118 229.824C84.7118 227.717 82.9998 226.009 80.8879 226.009C78.776 226.009 77.0639 227.717 77.0639 229.824C77.0639 231.931 78.776 233.64 80.8879 233.64Z" fill="url(#paint3_linear)"/>
<path d="M82.3307 230.294L79.9731 229.504L101.191 179.954L103.549 181.06L82.3307 230.294Z" fill="url(#paint4_linear)"/>
<path d="M101.443 180.41L80.6749 229.49L82.1865 230.127L102.955 181.047L101.443 180.41Z" fill="#2196F3"/>
<path d="M94.1185 256.17L80.4446 230.765L82.3307 229.824L96.476 254.759L94.1185 256.17Z" fill="url(#paint5_linear)"/>
<path d="M82.148 229.994L80.7063 230.776L94.3695 255.864L95.8112 255.082L82.148 229.994Z" fill="#2196F3"/>
<path d="M140.463 233.099C141.37 233.099 142.104 232.366 142.104 231.461C142.104 230.557 141.37 229.824 140.463 229.824C139.557 229.824 138.823 230.557 138.823 231.461C138.823 232.366 139.557 233.099 140.463 233.099Z" fill="#5FBF00"/>
<path d="M31.4171 201.491C32.0057 200.474 31.6564 199.173 30.637 198.586C29.6177 197.999 28.3142 198.347 27.7257 199.364C27.1372 200.382 27.4865 201.682 28.5058 202.269C29.5252 202.857 30.8286 202.508 31.4171 201.491Z" fill="url(#paint6_linear)"/>
<path d="M31.1824 262.8C32.2018 262.213 32.551 260.912 31.9625 259.895C31.374 258.878 30.0706 258.53 29.0512 259.117C28.0319 259.704 27.6826 261.005 28.2711 262.022C28.8596 263.039 30.1631 263.387 31.1824 262.8Z" fill="url(#paint7_linear)"/>
<path d="M21.317 233.588C22.4941 233.588 23.4483 232.636 23.4483 231.461C23.4483 230.287 22.4941 229.335 21.317 229.335C20.14 229.335 19.1858 230.287 19.1858 231.461C19.1858 232.636 20.14 233.588 21.317 233.588Z" fill="url(#paint8_linear)"/>
<path d="M52.3864 180.456C53.4058 179.869 53.755 178.569 53.1665 177.551C52.578 176.534 51.2745 176.186 50.2552 176.773C49.2358 177.36 48.8866 178.661 49.4751 179.678C50.0636 180.695 51.367 181.043 52.3864 180.456Z" fill="url(#paint9_linear)"/>
<path d="M81.9005 172.824C82.9198 172.237 83.2691 170.937 82.6806 169.919C82.092 168.902 80.7886 168.554 79.7692 169.141C78.7499 169.728 78.4006 171.029 78.9891 172.046C79.5777 173.063 80.8811 173.412 81.9005 172.824Z" fill="url(#paint10_linear)"/>
<path d="M111.414 180.459C112.433 179.871 112.783 178.571 112.194 177.554C111.605 176.537 110.302 176.188 109.283 176.775C108.263 177.363 107.914 178.663 108.503 179.68C109.091 180.697 110.395 181.046 111.414 180.459Z" fill="url(#paint11_linear)"/>
<path d="M133.275 202.273C134.294 201.686 134.644 200.385 134.055 199.368C133.467 198.351 132.163 198.003 131.144 198.59C130.124 199.177 129.775 200.478 130.364 201.495C130.952 202.512 132.256 202.86 133.275 202.273Z" fill="url(#paint12_linear)"/>
<path d="M132.731 262.805C133.75 262.218 134.099 260.917 133.511 259.9C132.922 258.883 131.619 258.535 130.599 259.122C129.58 259.709 129.231 261.01 129.819 262.027C130.408 263.044 131.711 263.392 132.731 262.805Z" fill="url(#paint13_linear)"/>
<path d="M110.32 284.072C111.34 283.484 111.689 282.184 111.1 281.167C110.512 280.15 109.208 279.801 108.189 280.388C107.17 280.976 106.821 282.276 107.409 283.293C107.998 284.31 109.301 284.659 110.32 284.072Z" fill="url(#paint14_linear)"/>
<path d="M81.8981 290.619C82.9175 290.032 83.2667 288.731 82.6782 287.714C82.0897 286.697 80.7862 286.348 79.7669 286.936C78.7475 287.523 78.3982 288.823 78.9868 289.841C79.5753 290.858 80.8787 291.206 81.8981 290.619Z" fill="url(#paint15_linear)"/>
<path d="M53.4799 284.074C54.4993 283.487 54.8485 282.186 54.26 281.169C53.6715 280.152 52.368 279.804 51.3487 280.391C50.3293 280.978 49.9801 282.279 50.5686 283.296C51.1571 284.313 52.4605 284.661 53.4799 284.074Z" fill="url(#paint16_linear)"/>
<path d="M80.8879 172.563C81.7941 172.563 82.5287 171.83 82.5287 170.926C82.5287 170.022 81.7941 169.289 80.8879 169.289C79.9816 169.289 79.247 170.022 79.247 170.926C79.247 171.83 79.9816 172.563 80.8879 172.563Z" fill="#69F0AE"/>
<path d="M111.823 179.634C112.276 178.851 112.007 177.85 111.222 177.397C110.438 176.945 109.434 177.214 108.981 177.997C108.528 178.78 108.797 179.781 109.582 180.233C110.366 180.685 111.37 180.417 111.823 179.634Z" fill="#69F0AE"/>
<path d="M132.826 201.793C133.611 201.341 133.88 200.34 133.427 199.557C132.973 198.774 131.97 198.506 131.185 198.958C130.4 199.41 130.131 200.411 130.584 201.194C131.038 201.977 132.041 202.245 132.826 201.793Z" fill="#69F0AE"/>
<path d="M133.085 261.778C133.538 260.995 133.269 259.994 132.484 259.542C131.699 259.09 130.696 259.358 130.243 260.141C129.79 260.924 130.059 261.926 130.843 262.378C131.628 262.83 132.632 262.562 133.085 261.778Z" fill="#69F0AE"/>
<path d="M110.075 283.536C110.86 283.084 111.129 282.083 110.676 281.299C110.223 280.516 109.219 280.248 108.434 280.7C107.65 281.152 107.381 282.154 107.834 282.937C108.287 283.72 109.29 283.988 110.075 283.536Z" fill="#69F0AE"/>
<path d="M52.1932 180.238C52.978 179.786 53.2469 178.785 52.7938 178.002C52.3407 177.219 51.3372 176.95 50.5523 177.402C49.7675 177.855 49.4986 178.856 49.9518 179.639C50.4049 180.422 51.4084 180.69 52.1932 180.238Z" fill="#69F0AE"/>
<path d="M31.1927 201.195C31.6459 200.412 31.377 199.411 30.5922 198.959C29.8073 198.507 28.8038 198.775 28.3507 199.558C27.8976 200.341 28.1665 201.342 28.9513 201.794C29.7361 202.247 30.7396 201.978 31.1927 201.195Z" fill="#69F0AE"/>
<path d="M141.477 233.359C142.496 232.771 142.846 231.471 142.257 230.454C141.669 229.437 140.365 229.088 139.346 229.675C138.326 230.262 137.977 231.563 138.566 232.58C139.154 233.597 140.458 233.946 141.477 233.359Z" fill="#69F0AE"/>
<path d="M30.9373 262.377C31.7221 261.924 31.991 260.923 31.5379 260.14C31.0847 259.357 30.0812 259.089 29.2964 259.541C28.5116 259.993 28.2427 260.994 28.6958 261.777C29.1489 262.56 30.1525 262.829 30.9373 262.377Z" fill="#69F0AE"/>
<path d="M53.9417 282.939C54.3948 282.156 54.1259 281.154 53.3411 280.702C52.5563 280.25 51.5528 280.519 51.0997 281.302C50.6466 282.085 50.9154 283.086 51.7003 283.538C52.4851 283.99 53.4886 283.722 53.9417 282.939Z" fill="#69F0AE"/>
<path d="M21.3171 233.099C22.2233 233.099 22.9579 232.366 22.9579 231.461C22.9579 230.557 22.2233 229.824 21.3171 229.824C20.4108 229.824 19.6762 230.557 19.6762 231.461C19.6762 232.366 20.4108 233.099 21.3171 233.099Z" fill="#69F0AE"/>
<path d="M80.8879 290.355C81.7941 290.355 82.5287 289.622 82.5287 288.717C82.5287 287.813 81.7941 287.08 80.8879 287.08C79.9816 287.08 79.247 287.813 79.247 288.717C79.247 289.622 79.9816 290.355 80.8879 290.355Z" fill="#69F0AE"/>
<path opacity="0.2" d="M20.2231 235.823C20.2274 221.763 24.8852 208.098 33.473 196.95C42.0607 185.803 54.0977 177.798 67.7139 174.178C81.3301 170.559 95.7633 171.527 108.771 176.933C121.779 182.34 132.633 191.881 139.648 204.075C136.206 196.098 131.168 188.905 124.842 182.938C118.517 176.971 111.037 172.355 102.861 169.373C94.6854 166.391 85.9855 165.106 77.2945 165.596C68.6034 166.086 60.1041 168.341 52.3172 172.224C44.5302 176.106 37.6195 181.533 32.0084 188.174C26.3972 194.814 22.2036 202.528 19.6846 210.842C17.1655 219.156 16.374 227.895 17.3584 236.525C18.3429 245.155 21.0826 253.494 25.4098 261.03C21.9772 253.068 20.2122 244.49 20.2231 235.823Z" fill="#5FBF00"/>
<path d="M80.8878 232.553C82.3982 232.553 83.6226 231.331 83.6226 229.824C83.6226 228.317 82.3982 227.095 80.8878 227.095C79.3775 227.095 78.1531 228.317 78.1531 229.824C78.1531 231.331 79.3775 232.553 80.8878 232.553Z" fill="#69F0AE"/>
</g>
<defs>
<linearGradient id="paint0_linear" x1="205.395" y1="248.878" x2="205.395" y2="0" gradientUnits="userSpaceOnUse">
<stop stop-color="#808080" stop-opacity="0.25"/>
<stop offset="0.54" stop-color="#808080" stop-opacity="0.12"/>
<stop offset="1" stop-color="#808080" stop-opacity="0.1"/>
</linearGradient>
<linearGradient id="paint1_linear" x1="156947" y1="90273.1" x2="156947" y2="17609.7" gradientUnits="userSpaceOnUse">
<stop stop-color="#808080" stop-opacity="0.25"/>
<stop offset="0.54" stop-color="#808080" stop-opacity="0.12"/>
<stop offset="1" stop-color="#808080" stop-opacity="0.1"/>
</linearGradient>
<linearGradient id="paint2_linear" x1="27752.6" y1="106693" x2="27752.6" y2="51310.5" gradientUnits="userSpaceOnUse">
<stop stop-color="#808080" stop-opacity="0.25"/>
<stop offset="0.54" stop-color="#808080" stop-opacity="0.12"/>
<stop offset="1" stop-color="#808080" stop-opacity="0.1"/>
</linearGradient>
<linearGradient id="paint3_linear" x1="1389.07" y1="4015.65" x2="1389.07" y2="3891.79" gradientUnits="userSpaceOnUse">
<stop stop-color="#808080" stop-opacity="0.25"/>
<stop offset="0.54" stop-color="#808080" stop-opacity="0.12"/>
<stop offset="1" stop-color="#808080" stop-opacity="0.1"/>
</linearGradient>
<linearGradient id="paint4_linear" x1="4668.02" y1="24821.5" x2="4668.02" y2="19435.1" gradientUnits="userSpaceOnUse">
<stop stop-color="#808080" stop-opacity="0.25"/>
<stop offset="0.54" stop-color="#808080" stop-opacity="0.12"/>
<stop offset="1" stop-color="#808080" stop-opacity="0.1"/>
</linearGradient>
<linearGradient id="paint5_linear" x1="3088.1" y1="14575.3" x2="3088.1" y2="13100" gradientUnits="userSpaceOnUse">
<stop stop-color="#808080" stop-opacity="0.25"/>
<stop offset="0.54" stop-color="#808080" stop-opacity="0.12"/>
<stop offset="1" stop-color="#808080" stop-opacity="0.1"/>
</linearGradient>
<linearGradient id="paint6_linear" x1="-1727.99" y1="3569.03" x2="-1694.69" y2="3549.77" gradientUnits="userSpaceOnUse">
<stop stop-color="#808080" stop-opacity="0.25"/>
<stop offset="0.54" stop-color="#808080" stop-opacity="0.12"/>
<stop offset="1" stop-color="#808080" stop-opacity="0.1"/>
</linearGradient>
<linearGradient id="paint7_linear" x1="1076.85" y1="3147.36" x2="1076.85" y2="3108.96" gradientUnits="userSpaceOnUse">
<stop stop-color="#808080" stop-opacity="0.25"/>
<stop offset="0.54" stop-color="#808080" stop-opacity="0.12"/>
<stop offset="1" stop-color="#808080" stop-opacity="0.1"/>
</linearGradient>
<linearGradient id="paint8_linear" x1="-333.573" y1="3640.14" x2="-314.37" y2="3606.81" gradientUnits="userSpaceOnUse">
<stop stop-color="#808080" stop-opacity="0.25"/>
<stop offset="0.54" stop-color="#808080" stop-opacity="0.12"/>
<stop offset="1" stop-color="#808080" stop-opacity="0.1"/>
</linearGradient>
<linearGradient id="paint9_linear" x1="-2911.78" y1="2747.99" x2="-2873.25" y2="2747.99" gradientUnits="userSpaceOnUse">
<stop stop-color="#808080" stop-opacity="0.25"/>
<stop offset="0.54" stop-color="#808080" stop-opacity="0.12"/>
<stop offset="1" stop-color="#808080" stop-opacity="0.1"/>
</linearGradient>
<linearGradient id="paint10_linear" x1="-2637.35" y1="2708.46" x2="-2598.82" y2="2708.46" gradientUnits="userSpaceOnUse">
<stop stop-color="#808080" stop-opacity="0.25"/>
<stop offset="0.54" stop-color="#808080" stop-opacity="0.12"/>
<stop offset="1" stop-color="#808080" stop-opacity="0.1"/>
</linearGradient>
<linearGradient id="paint11_linear" x1="-2378.16" y1="2806.9" x2="-2339.67" y2="2806.9" gradientUnits="userSpaceOnUse">
<stop stop-color="#808080" stop-opacity="0.25"/>
<stop offset="0.54" stop-color="#808080" stop-opacity="0.12"/>
<stop offset="1" stop-color="#808080" stop-opacity="0.1"/>
</linearGradient>
<linearGradient id="paint12_linear" x1="-2202.4" y1="3025.91" x2="-2163.87" y2="3025.91" gradientUnits="userSpaceOnUse">
<stop stop-color="#808080" stop-opacity="0.25"/>
<stop offset="0.54" stop-color="#808080" stop-opacity="0.12"/>
<stop offset="1" stop-color="#808080" stop-opacity="0.1"/>
</linearGradient>
<linearGradient id="paint13_linear" x1="-2268.03" y1="3572.56" x2="-2229.49" y2="3572.56" gradientUnits="userSpaceOnUse">
<stop stop-color="#808080" stop-opacity="0.25"/>
<stop offset="0.54" stop-color="#808080" stop-opacity="0.12"/>
<stop offset="1" stop-color="#808080" stop-opacity="0.1"/>
</linearGradient>
<linearGradient id="paint14_linear" x1="-2491.88" y1="3742.49" x2="-2453.39" y2="3742.49" gradientUnits="userSpaceOnUse">
<stop stop-color="#808080" stop-opacity="0.25"/>
<stop offset="0.54" stop-color="#808080" stop-opacity="0.12"/>
<stop offset="1" stop-color="#808080" stop-opacity="0.1"/>
</linearGradient>
<linearGradient id="paint15_linear" x1="-2755.41" y1="3773.3" x2="-2716.88" y2="3773.3" gradientUnits="userSpaceOnUse">
<stop stop-color="#808080" stop-opacity="0.25"/>
<stop offset="0.54" stop-color="#808080" stop-opacity="0.12"/>
<stop offset="1" stop-color="#808080" stop-opacity="0.1"/>
</linearGradient>
<linearGradient id="paint16_linear" x1="-3005.74" y1="3685.77" x2="-2967.25" y2="3685.77" gradientUnits="userSpaceOnUse">
<stop stop-color="#808080" stop-opacity="0.25"/>
<stop offset="0.54" stop-color="#808080" stop-opacity="0.12"/>
<stop offset="1" stop-color="#808080" stop-opacity="0.1"/>
</linearGradient>
<clipPath id="clip0">
<rect width="394" height="310.533" fill="white"/>
</clipPath>
</defs>
</svg>
