<svg width="181" height="64" viewBox="0 0 181 64" fill="none" xmlns="http://www.w3.org/2000/svg">
<path d="M32 64C49.6731 64 64 49.6731 64 32C64 14.3269 49.6731 0 32 0C14.3269 0 0 14.3269 0 32C0 49.6731 14.3269 64 32 64Z" fill="#5FBF00"/>
<path opacity="0.2" d="M46 32C49.308 32 52 34.692 52 38C52 41.308 49.308 44 46 44C42.692 44 40 41.308 40 38C40 34.692 42.692 32 46 32ZM46 28C40.477 28 36 32.477 36 38C36 43.523 40.477 48 46 48C51.523 48 56 43.523 56 38C56 32.477 51.523 28 46 28Z" fill="#231F20"/>
<path opacity="0.2" d="M18 31C21.86 31 25 34.14 25 38C25 41.86 21.86 45 18 45C14.14 45 11 41.86 11 38C11 34.14 14.14 31 18 31ZM18 28C12.477 28 8 32.477 8 38C8 43.523 12.477 48 18 48C23.523 48 28 43.523 28 38C28 32.477 23.523 28 18 28Z" fill="#231F20"/>
<path d="M18 29C21.86 29 25 32.14 25 36C25 39.86 21.86 43 18 43C14.14 43 11 39.86 11 36C11 32.14 14.14 29 18 29ZM18 26C12.477 26 8 30.477 8 36C8 41.523 12.477 46 18 46C23.523 46 28 41.523 28 36C28 30.477 23.523 26 18 26Z" fill="#4F5D73"/>
<path d="M46 29C49.86 29 53 32.14 53 36C53 39.86 49.86 43 46 43C42.14 43 39 39.86 39 36C39 32.14 42.14 29 46 29ZM46 26C40.477 26 36 30.477 36 36C36 41.523 40.477 46 46 46C51.523 46 56 41.523 56 36C56 30.477 51.523 26 46 26Z" fill="#4F5D73"/>
<path opacity="0.2" d="M47.334 37.314L38.334 19.814C38.077 19.314 37.562 19 37 19H32C31.171 19 30.5 19.671 30.5 20.5C30.5 21.329 31.171 22 32 22H36.084L39.17 28H30.427L28.342 23.829C28.087 23.321 27.568 23 27 23H22C21.171 23 20.5 23.671 20.5 24.5C20.5 25.329 21.171 26 22 26H26.073L27.477 28.808L17.05 37.339C16.559 37.741 16.374 38.407 16.587 39.005C16.8 39.602 17.366 40 18 40H32C32.398 40 32.779 39.842 33.061 39.561L41.022 31.6L44.667 38.686C44.933 39.203 45.458 39.5 46.002 39.5C46.232 39.5 46.467 39.446 46.687 39.333C47.423 38.955 47.713 38.051 47.334 37.314ZM22.202 37L28.852 31.559L31.508 36.871L31.379 37H22.202ZM33.744 34.634L31.927 31H37.379L33.744 34.634Z" fill="#231F20"/>
<path d="M46 36L37 18.5H32" stroke="white" stroke-miterlimit="10" stroke-linecap="round" stroke-linejoin="round"/>
<path d="M33 34L27 22.5H22" stroke="white" stroke-miterlimit="10" stroke-linecap="round" stroke-linejoin="round"/>
<path d="M18 36.5H32L41 27.5H29L18 36.5Z" stroke="white" stroke-miterlimit="10" stroke-linecap="round" stroke-linejoin="round"/>
<path d="M82.576 41.204H80.83C80.002 41.204 79.39 41 78.994 40.592C78.61 40.196 78.418 39.632 78.418 38.9V38.144C77.05 37.94 75.958 37.292 75.142 36.2C74.338 35.108 73.936 33.614 73.936 31.718C73.936 30.662 74.068 29.732 74.332 28.928C74.596 28.112 74.962 27.428 75.43 26.876C75.91 26.324 76.486 25.91 77.158 25.634C77.83 25.358 78.58 25.22 79.408 25.22C80.236 25.22 80.986 25.358 81.658 25.634C82.33 25.91 82.906 26.324 83.386 26.876C83.866 27.428 84.232 28.112 84.484 28.928C84.748 29.732 84.88 30.662 84.88 31.718C84.88 33.578 84.502 35.042 83.746 36.11C82.99 37.178 81.958 37.838 80.65 38.09V39.26H82.576V41.204ZM79.408 36.11C80.308 36.11 81.022 35.81 81.55 35.21C82.09 34.61 82.36 33.77 82.36 32.69V30.746C82.36 29.666 82.09 28.826 81.55 28.226C81.022 27.626 80.308 27.326 79.408 27.326C78.508 27.326 77.788 27.626 77.248 28.226C76.72 28.826 76.456 29.666 76.456 30.746V32.69C76.456 33.77 76.72 34.61 77.248 35.21C77.788 35.81 78.508 36.11 79.408 36.11ZM89.5405 25.436V33.158C89.5405 34.142 89.7265 34.88 90.0985 35.372C90.4825 35.864 91.1245 36.11 92.0245 36.11C92.9245 36.11 93.5605 35.864 93.9325 35.372C94.3165 34.88 94.5085 34.142 94.5085 33.158V25.436H96.8485V32.852C96.8485 33.776 96.7585 34.574 96.5785 35.246C96.4105 35.918 96.1345 36.476 95.7505 36.92C95.3665 37.364 94.8625 37.694 94.2385 37.91C93.6265 38.114 92.8825 38.216 92.0065 38.216C91.1185 38.216 90.3685 38.114 89.7565 37.91C89.1565 37.694 88.6645 37.364 88.2805 36.92C87.8965 36.476 87.6205 35.918 87.4525 35.246C87.2845 34.574 87.2005 33.776 87.2005 32.852V25.436H89.5405ZM99.7182 38V25.436H107.998V27.542H102.094V30.584H107.314V32.69H102.094V35.894H107.998V38H99.7182ZM112.887 38H110.511V25.436H116.181C116.757 25.436 117.273 25.526 117.729 25.706C118.185 25.886 118.569 26.15 118.881 26.498C119.205 26.834 119.451 27.242 119.619 27.722C119.799 28.202 119.889 28.736 119.889 29.324C119.889 30.188 119.691 30.932 119.295 31.556C118.911 32.18 118.329 32.624 117.549 32.888L120.123 38H117.477L115.137 33.158H112.887V38ZM115.947 31.16C116.403 31.16 116.763 31.04 117.027 30.8C117.291 30.548 117.423 30.194 117.423 29.738V28.91C117.423 28.454 117.291 28.106 117.027 27.866C116.763 27.626 116.403 27.506 115.947 27.506H112.887V31.16H115.947ZM127.221 38.216C126.393 38.216 125.643 38.078 124.971 37.802C124.299 37.526 123.723 37.112 123.243 36.56C122.775 36.008 122.409 35.33 122.145 34.526C121.881 33.722 121.749 32.786 121.749 31.718C121.749 30.662 121.881 29.732 122.145 28.928C122.409 28.112 122.775 27.428 123.243 26.876C123.723 26.324 124.299 25.91 124.971 25.634C125.643 25.358 126.393 25.22 127.221 25.22C128.049 25.22 128.799 25.358 129.471 25.634C130.143 25.91 130.719 26.324 131.199 26.876C131.679 27.428 132.045 28.112 132.297 28.928C132.561 29.732 132.693 30.662 132.693 31.718C132.693 32.786 132.561 33.722 132.297 34.526C132.045 35.33 131.679 36.008 131.199 36.56C130.719 37.112 130.143 37.526 129.471 37.802C128.799 38.078 128.049 38.216 127.221 38.216ZM127.221 36.11C128.121 36.11 128.835 35.81 129.363 35.21C129.903 34.61 130.173 33.77 130.173 32.69V30.746C130.173 29.666 129.903 28.826 129.363 28.226C128.835 27.626 128.121 27.326 127.221 27.326C126.321 27.326 125.601 27.626 125.061 28.226C124.533 28.826 124.269 29.666 124.269 30.746V32.69C124.269 33.77 124.533 34.61 125.061 35.21C125.601 35.81 126.321 36.11 127.221 36.11ZM139.357 25.436H145.171C145.687 25.436 146.149 25.514 146.557 25.67C146.977 25.826 147.331 26.042 147.619 26.318C147.907 26.594 148.123 26.936 148.267 27.344C148.423 27.74 148.501 28.178 148.501 28.658C148.501 29.138 148.435 29.546 148.303 29.882C148.183 30.206 148.015 30.476 147.799 30.692C147.595 30.908 147.355 31.07 147.079 31.178C146.815 31.286 146.539 31.346 146.251 31.358V31.466C146.527 31.466 146.821 31.52 147.133 31.628C147.457 31.736 147.751 31.91 148.015 32.15C148.291 32.378 148.519 32.678 148.699 33.05C148.879 33.41 148.969 33.86 148.969 34.4C148.969 34.904 148.885 35.378 148.717 35.822C148.561 36.254 148.339 36.632 148.051 36.956C147.763 37.28 147.421 37.538 147.025 37.73C146.629 37.91 146.197 38 145.729 38H139.357V25.436ZM141.733 35.984H145.045C145.501 35.984 145.855 35.87 146.107 35.642C146.359 35.402 146.485 35.06 146.485 34.616V34.004C146.485 33.56 146.359 33.218 146.107 32.978C145.855 32.738 145.501 32.618 145.045 32.618H141.733V35.984ZM141.733 30.674H144.667C145.099 30.674 145.435 30.56 145.675 30.332C145.915 30.092 146.035 29.762 146.035 29.342V28.784C146.035 28.364 145.915 28.04 145.675 27.812C145.435 27.572 145.099 27.452 144.667 27.452H141.733V30.674ZM150.77 38V36.092H152.426V27.344H150.77V25.436H156.476V27.344H154.802V36.092H156.476V38H150.77ZM162.954 32.312L161.28 34.292V38H158.904V25.436H161.28V31.628H161.37L163.152 29.27L166.266 25.436H169.002L164.628 30.674L169.362 38H166.536L162.954 32.312ZM171.103 38V25.436H179.383V27.542H173.479V30.584H178.699V32.69H173.479V35.894H179.383V38H171.103Z" fill="#4F5D73"/>
</svg>
