<svg width="48" height="48" viewBox="0 0 48 48" fill="none" xmlns="http://www.w3.org/2000/svg">
<g clip-path="url(#clip0)">
<path d="M23.994 15.9967C19.587 15.9967 15.9906 19.5931 15.9906 24.0001C15.9906 28.4071 19.587 32.0035 23.994 32.0035C28.401 32.0035 31.9974 28.4071 31.9974 24.0001C31.9974 19.5931 28.401 15.9967 23.994 15.9967ZM47.9982 24.0001C47.9982 20.6859 48.0282 17.4017 47.8421 14.0934C47.656 10.2508 46.7794 6.84053 43.9695 4.03063C41.1536 1.21473 37.7493 0.344139 33.9067 0.158013C30.5925 -0.0281124 27.3082 0.00190794 24 0.00190794C20.6858 0.00190794 17.4015 -0.0281124 14.0933 0.158013C10.2507 0.344139 6.84041 1.22073 4.03051 4.03063C1.21461 6.84653 0.344017 10.2508 0.157891 14.0934C-0.0282345 17.4077 0.00178587 20.6919 0.00178587 24.0001C0.00178587 27.3084 -0.0282345 30.5986 0.157891 33.9068C0.344017 37.7494 1.22061 41.1597 4.03051 43.9696C6.84641 46.7855 10.2507 47.6561 14.0933 47.8422C17.4075 48.0284 20.6918 47.9983 24 47.9983C27.3142 47.9983 30.5985 48.0284 33.9067 47.8422C37.7493 47.6561 41.1596 46.7795 43.9695 43.9696C46.7854 41.1537 47.656 37.7494 47.8421 33.9068C48.0342 30.5986 47.9982 27.3144 47.9982 24.0001ZM23.994 36.3144C17.1794 36.3144 11.6797 30.8147 11.6797 24.0001C11.6797 17.1855 17.1794 11.6858 23.994 11.6858C30.8086 11.6858 36.3083 17.1855 36.3083 24.0001C36.3083 30.8147 30.8086 36.3144 23.994 36.3144ZM36.8127 14.0574C35.2216 14.0574 33.9367 12.7725 33.9367 11.1815C33.9367 9.59039 35.2216 8.30552 36.8127 8.30552C38.4037 8.30552 39.6886 9.59039 39.6886 11.1815C39.6891 11.5593 39.615 11.9335 39.4706 12.2826C39.3263 12.6317 39.1145 12.949 38.8473 13.2161C38.5802 13.4833 38.2629 13.6951 37.9138 13.8395C37.5647 13.9838 37.1905 14.0579 36.8127 14.0574Z" fill="#C4C4C4"/>
</g>
<defs>
<clipPath id="clip0">
<rect width="48" height="48" fill="white"/>
</clipPath>
</defs>
</svg>
