<svg width="48" height="48" viewBox="0 0 48 48" fill="none" xmlns="http://www.w3.org/2000/svg">
<path d="M46.9982 12.7554C46.725 11.7377 46.1892 10.8097 45.4446 10.0641C44.7 9.31857 43.7727 8.78167 42.7554 8.50714C39.0107 7.5 24 7.5 24 7.5C24 7.5 8.98929 7.5 5.24464 8.50179C4.22689 8.77542 3.29906 9.31203 2.55432 10.0577C1.80957 10.8034 1.27414 11.7319 1.00179 12.75C-2.04359e-07 16.5 0 24.3214 0 24.3214C0 24.3214 -2.04359e-07 32.1429 1.00179 35.8875C1.55357 37.9554 3.18214 39.5839 5.24464 40.1357C8.98929 41.1429 24 41.1429 24 41.1429C24 41.1429 39.0107 41.1429 42.7554 40.1357C44.8232 39.5839 46.4464 37.9554 46.9982 35.8875C48 32.1429 48 24.3214 48 24.3214C48 24.3214 48 16.5 46.9982 12.7554ZM19.2321 31.5V17.1429L31.6607 24.2679L19.2321 31.5Z" fill="#C4C4C4"/>
</svg>
