<svg width="28" height="28" viewBox="0 0 28 28" fill="none" xmlns="http://www.w3.org/2000/svg">
<path d="M1.16666 24.5H5.83332V10.5H1.16666V24.5ZM26.8333 11.6667C26.8333 10.3833 25.7833 9.33334 24.5 9.33334H17.1383L18.2467 4.00167L18.2817 3.62834C18.2817 3.15001 18.0833 2.70667 17.7683 2.39167L16.5317 1.16667L8.85499 8.85501C8.42332 9.27501 8.16666 9.85834 8.16666 10.5V22.1667C8.16666 23.45 9.21666 24.5 10.5 24.5H21C21.9683 24.5 22.7967 23.9167 23.1467 23.0767L26.67 14.8517C26.775 14.5833 26.8333 14.3033 26.8333 14V11.6667Z" fill="#5FBF00"/>
</svg>
