<svg width="28" height="28" viewBox="0 0 28 28" fill="none" xmlns="http://www.w3.org/2000/svg">
<path d="M13.7667 12.7167C11.1183 12.0283 10.2667 11.3167 10.2667 10.2083C10.2667 8.93667 11.445 8.05 13.4167 8.05C15.4933 8.05 16.2633 9.04167 16.3333 10.5H18.9117C18.83 8.49333 17.605 6.65 15.1667 6.055V3.5H11.6667V6.02C9.40332 6.51 7.58332 7.98 7.58332 10.2317C7.58332 12.9267 9.81165 14.2683 13.0667 15.05C15.9833 15.75 16.5667 16.7767 16.5667 17.8617C16.5667 18.6667 15.995 19.95 13.4167 19.95C11.0133 19.95 10.0683 18.8767 9.93999 17.5H7.37332C7.51332 20.055 9.42665 21.49 11.6667 21.9683V24.5H15.1667V21.9917C17.4417 21.56 19.25 20.2417 19.25 17.85C19.25 14.5367 16.415 13.405 13.7667 12.7167Z" fill="#5FBF00"/>
</svg>
