<svg width="364" height="366" viewBox="0 0 364 366" fill="none" xmlns="http://www.w3.org/2000/svg">
<g clip-path="url(#clip0)">
<path d="M35.0044 308.323L31.7986 295.648C26.1146 293.233 20.2992 291.141 14.3802 289.383L13.9756 295.274L12.3345 288.784C4.99392 286.68 0 285.755 0 285.755C0 285.755 6.74392 311.47 20.8935 331.129L37.3789 334.032L24.5718 335.883C26.3517 338.03 28.2645 340.063 30.2988 341.969C50.88 361.12 73.804 369.908 81.5004 361.595C89.1967 353.282 78.7515 331.019 58.1703 311.869C51.7899 305.932 43.7749 301.167 35.7516 297.417L35.0044 308.323Z" fill="#F2F2F2"/>
<path d="M65.4918 294.556L69.283 282.044C65.6628 277.032 61.7633 272.228 57.6033 267.655L54.2196 272.488L56.1607 266.082C50.9606 260.479 47.163 257.1 47.163 257.1C47.163 257.1 39.6787 282.608 41.653 306.768L54.2685 317.796L42.3484 312.744C42.7655 315.505 43.3553 318.237 44.1145 320.923C51.8583 347.983 66.9515 367.383 77.8258 364.256C88.7002 361.128 91.2384 336.657 83.4946 309.597C81.0942 301.209 76.6891 292.977 71.7548 285.609L65.4918 294.556Z" fill="#F2F2F2"/>
<path d="M253.997 86.7056H251.998V31.7868C251.998 27.6125 251.177 23.4791 249.584 19.6225C247.99 15.766 245.655 12.2618 242.711 9.31015C239.766 6.35847 236.271 4.01707 232.424 2.41964C228.577 0.822202 224.454 1.52588e-05 220.29 1.52588e-05H104.222C95.8131 1.52588e-05 87.7481 3.34897 81.8017 9.31015C75.8554 15.2713 72.5148 23.3564 72.5148 31.7868V333.081C72.5148 337.255 73.3349 341.389 74.9284 345.245C76.5218 349.102 78.8574 352.606 81.8017 355.558C84.7461 358.509 88.2415 360.851 92.0885 362.448C95.9354 364.046 100.059 364.868 104.222 364.868H220.29C228.699 364.868 236.764 361.519 242.71 355.558C248.657 349.596 251.997 341.511 251.997 333.081V125.798H253.997L253.997 86.7056Z" fill="#E6E6E6"/>
<path d="M221.569 8.26674H206.42C207.117 9.97926 207.383 11.8373 207.194 13.6771C207.006 15.517 206.369 17.2821 205.34 18.8171C204.311 20.3521 202.921 21.6098 201.293 22.4794C199.664 23.349 197.848 23.8038 196.003 23.8037H129.509C127.664 23.8036 125.848 23.3487 124.22 22.4791C122.592 21.6094 121.202 20.3517 120.173 18.8167C119.144 17.2818 118.507 15.5166 118.319 13.6769C118.131 11.8371 118.397 9.97919 119.093 8.26674H104.943C98.6627 8.26674 92.6399 10.7677 88.1992 15.2195C83.7585 19.6712 81.2638 25.7091 81.2638 32.0048V332.862C81.2638 339.157 83.7585 345.195 88.1992 349.647C92.6399 354.099 98.6627 356.6 104.943 356.6H221.569C227.849 356.6 233.872 354.099 238.313 349.647C242.754 345.195 245.248 339.157 245.248 332.862V32.0043C245.248 25.7087 242.753 19.6709 238.313 15.2193C233.872 10.7676 227.849 8.26674 221.569 8.26674Z" fill="white"/>
<path d="M148.395 128.113C148.394 126.01 148.947 123.944 149.996 122.123C151.045 120.302 152.554 118.79 154.371 117.739C152.555 116.688 150.495 116.134 148.397 116.134C146.299 116.134 144.239 116.687 142.422 117.738C140.606 118.789 139.097 120.301 138.048 122.123C136.999 123.944 136.447 126.009 136.447 128.112C136.447 130.215 136.999 132.281 138.048 134.102C139.097 135.923 140.606 137.435 142.422 138.486C144.239 139.537 146.299 140.091 148.397 140.09C150.495 140.09 152.555 139.536 154.371 138.485C152.554 137.434 151.045 135.923 149.996 134.102C148.947 132.281 148.394 130.216 148.395 128.113Z" fill="#CCCCCC"/>
<path d="M163.416 128.113C163.415 126.01 163.967 123.944 165.017 122.123C166.066 120.302 167.575 118.79 169.392 117.739C167.576 116.688 165.515 116.134 163.418 116.134C161.32 116.134 159.26 116.687 157.443 117.738C155.626 118.789 154.118 120.301 153.069 122.123C152.02 123.944 151.468 126.009 151.468 128.112C151.468 130.215 152.02 132.281 153.069 134.102C154.118 135.923 155.626 137.435 157.443 138.486C159.26 139.537 161.32 140.091 163.418 140.09C165.515 140.09 167.576 139.536 169.392 138.485C167.575 137.434 166.066 135.923 165.017 134.102C163.968 132.281 163.415 130.216 163.416 128.113Z" fill="#CCCCCC"/>
<path d="M178.095 140.091C184.694 140.091 190.044 134.728 190.044 128.112C190.044 121.497 184.694 116.134 178.095 116.134C171.496 116.134 166.147 121.497 166.147 128.112C166.147 134.728 171.496 140.091 178.095 140.091Z" fill="#02C916"/>
<path d="M198.064 165.525H128.426C127.763 165.524 127.127 165.26 126.659 164.79C126.19 164.32 125.926 163.683 125.925 163.018V93.2062C125.926 92.5416 126.19 91.9044 126.659 91.4345C127.127 90.9645 127.763 90.7001 128.426 90.6994H198.064C198.727 90.7001 199.363 90.9645 199.832 91.4345C200.3 91.9044 200.564 92.5416 200.565 93.2062V163.018C200.564 163.683 200.3 164.32 199.832 164.79C199.363 165.26 198.727 165.524 198.064 165.525ZM128.426 91.7027C128.028 91.7031 127.647 91.8617 127.365 92.1436C127.084 92.4256 126.926 92.808 126.926 93.2067V163.019C126.926 163.418 127.084 163.8 127.365 164.082C127.647 164.364 128.028 164.522 128.426 164.523H198.064C198.462 164.522 198.843 164.364 199.125 164.082C199.406 163.8 199.564 163.418 199.565 163.019V93.2067C199.564 92.808 199.406 92.4256 199.125 92.1436C198.843 91.8617 198.462 91.7031 198.064 91.7027H128.426Z" fill="#CCCCCC"/>
<path d="M213.613 219.039H106.809V220.042H213.613V219.039Z" fill="#CCCCCC"/>
<path d="M110.182 212.778C112.045 212.778 113.555 211.264 113.555 209.397C113.555 207.53 112.045 206.016 110.182 206.016C108.319 206.016 106.809 207.53 106.809 209.397C106.809 211.264 108.319 212.778 110.182 212.778Z" fill="#02C916"/>
<path d="M213.613 252.851H106.809V253.854H213.613V252.851Z" fill="#CCCCCC"/>
<path d="M110.182 246.59C112.045 246.59 113.555 245.077 113.555 243.209C113.555 241.342 112.045 239.828 110.182 239.828C108.319 239.828 106.809 241.342 106.809 243.209C106.809 245.077 108.319 246.59 110.182 246.59Z" fill="#02C916"/>
<path d="M211.659 291.354H177.906C177.323 291.354 176.764 291.121 176.351 290.708C175.939 290.294 175.707 289.734 175.707 289.15V277.29C175.707 276.705 175.939 276.145 176.351 275.732C176.764 275.318 177.323 275.086 177.906 275.085H211.659C212.242 275.086 212.801 275.318 213.213 275.732C213.625 276.145 213.857 276.705 213.858 277.29V289.15C213.857 289.734 213.625 290.294 213.213 290.708C212.801 291.121 212.242 291.354 211.659 291.354Z" fill="#02C916"/>
<path d="M121.184 212.778C123.047 212.778 124.557 211.264 124.557 209.397C124.557 207.53 123.047 206.016 121.184 206.016C119.322 206.016 117.812 207.53 117.812 209.397C117.812 211.264 119.322 212.778 121.184 212.778Z" fill="#02C916"/>
<path d="M132.187 212.778C134.05 212.778 135.56 211.264 135.56 209.397C135.56 207.53 134.05 206.016 132.187 206.016C130.324 206.016 128.814 207.53 128.814 209.397C128.814 211.264 130.324 212.778 132.187 212.778Z" fill="#02C916"/>
<path d="M121.184 246.59C123.047 246.59 124.557 245.077 124.557 243.209C124.557 241.342 123.047 239.828 121.184 239.828C119.322 239.828 117.812 241.342 117.812 243.209C117.812 245.077 119.322 246.59 121.184 246.59Z" fill="#02C916"/>
<path d="M132.187 246.59C134.05 246.59 135.56 245.077 135.56 243.209C135.56 241.342 134.05 239.828 132.187 239.828C130.324 239.828 128.814 241.342 128.814 243.209C128.814 245.077 130.324 246.59 132.187 246.59Z" fill="#02C916"/>
<path d="M362.641 366H11.7677C11.0166 366 10.4081 365.733 10.4081 365.403C10.4081 365.074 11.0166 364.806 11.7677 364.806H362.641C363.391 364.806 364 365.074 364 365.403C364 365.733 363.391 366 362.641 366Z" fill="#3F3D56"/>
<path d="M275.952 239.792C276.192 239.902 276.422 240.031 276.641 240.177L298.56 230.799L299.343 225.011L308.101 224.957L307.583 238.233L278.653 245.902C278.592 246.104 278.519 246.302 278.434 246.494C278.016 247.389 277.343 248.14 276.501 248.653C275.658 249.166 274.683 249.417 273.698 249.376C272.714 249.336 271.763 249.004 270.965 248.423C270.168 247.842 269.56 247.038 269.217 246.112C268.873 245.186 268.811 244.178 269.037 243.216C269.263 242.255 269.768 241.381 270.487 240.706C271.207 240.031 272.11 239.584 273.082 239.421C274.054 239.258 275.053 239.387 275.952 239.792Z" fill="#FFB8B8"/>
<path d="M311.286 360.094H305.295L302.445 336.927L311.287 336.927L311.286 360.094Z" fill="#FFB8B8"/>
<path d="M301.015 358.377H312.57V365.671H293.74C293.74 363.736 294.506 361.881 295.871 360.514C297.235 359.146 299.086 358.377 301.015 358.377Z" fill="#2F2E41"/>
<path d="M334.587 358.397L328.624 358.985L323.522 336.211L332.322 335.341L334.587 358.397Z" fill="#FFB8B8"/>
<path d="M324.198 357.698L335.697 356.563L336.41 363.821L317.671 365.671C317.577 364.718 317.672 363.756 317.949 362.839C318.226 361.923 318.681 361.07 319.287 360.329C319.893 359.589 320.639 358.976 321.481 358.524C322.324 358.073 323.247 357.792 324.198 357.698Z" fill="#2F2E41"/>
<path d="M312.954 200.439C319.583 200.439 324.956 195.052 324.956 188.406C324.956 181.761 319.583 176.374 312.954 176.374C306.325 176.374 300.951 181.761 300.951 188.406C300.951 195.052 306.325 200.439 312.954 200.439Z" fill="#FFB8B8"/>
<path d="M303.956 355.409C303.441 355.41 302.942 355.229 302.547 354.898C302.153 354.566 301.887 354.106 301.798 353.597C298.697 336.34 288.561 279.912 288.318 278.349C288.313 278.313 288.31 278.277 288.311 278.241V274.033C288.31 273.88 288.358 273.731 288.447 273.606L289.786 271.726C289.85 271.636 289.933 271.561 290.03 271.508C290.127 271.455 290.235 271.425 290.345 271.42C297.979 271.061 322.982 270.009 324.19 271.522C325.403 273.043 324.974 277.649 324.876 278.557L324.881 278.652L336.113 350.666C336.201 351.241 336.06 351.827 335.72 352.298C335.381 352.768 334.87 353.086 334.298 353.182L327.282 354.341C326.76 354.425 326.224 354.318 325.774 354.04C325.323 353.762 324.987 353.331 324.826 352.826C322.656 345.875 315.38 322.491 312.859 313.443C312.843 313.386 312.807 313.337 312.757 313.304C312.708 313.271 312.648 313.258 312.589 313.266C312.531 313.275 312.477 313.304 312.438 313.349C312.4 313.394 312.379 313.452 312.38 313.511C312.506 322.136 312.81 344.142 312.915 351.742L312.926 352.561C312.931 353.115 312.728 353.651 312.358 354.062C311.988 354.474 311.477 354.731 310.926 354.783L304.161 355.4C304.092 355.406 304.024 355.409 303.956 355.409Z" fill="#2F2E41"/>
<path d="M305.336 205.17C303.241 206.419 301.988 208.713 301.269 211.047C299.937 215.368 299.136 219.836 298.882 224.352L298.122 237.874L288.712 273.721C296.868 280.639 301.572 279.066 312.55 273.408C323.529 267.749 324.783 275.294 324.783 275.294L326.979 244.793L330.115 211.464C329.411 210.614 328.615 209.846 327.74 209.174C324.84 206.914 321.467 205.343 317.875 204.58C314.282 203.816 310.563 203.88 306.999 204.767L305.336 205.17Z" fill="#02C916"/>
<path d="M302.28 247.031C302.533 247.127 302.778 247.242 303.013 247.376L324.686 236.502L325.045 230.61L333.985 229.992L334.464 243.422L305.502 253.024C305.265 254.041 304.726 254.961 303.954 255.663C303.183 256.365 302.217 256.815 301.185 256.953C300.153 257.091 299.103 256.911 298.175 256.436C297.247 255.962 296.486 255.215 295.991 254.296C295.497 253.377 295.294 252.329 295.408 251.291C295.523 250.253 295.95 249.275 296.632 248.486C297.315 247.698 298.221 247.136 299.23 246.876C300.239 246.616 301.302 246.67 302.28 247.031Z" fill="#FFB8B8"/>
<path d="M329.959 211.616C335.291 213.503 336.23 233.943 336.23 233.943C329.957 230.484 322.429 236.145 322.429 236.145C322.429 236.145 320.861 230.799 318.979 223.881C318.41 221.935 318.342 219.877 318.781 217.898C319.22 215.918 320.151 214.083 321.488 212.561C321.488 212.561 324.626 209.728 329.959 211.616Z" fill="#02C916"/>
<path d="M323.716 191.588C322.221 190.389 320.18 192.569 320.18 192.569L318.984 181.775C318.984 181.775 311.506 182.673 306.721 181.475C301.935 180.277 301.188 185.823 301.188 185.823C300.941 183.583 300.891 181.325 301.038 179.076C301.337 176.378 305.225 173.679 312.105 171.88C318.984 170.081 322.573 177.877 322.573 177.877C327.359 180.275 325.211 192.788 323.716 191.588Z" fill="#2F2E41"/>
</g>
<defs>
<clipPath id="clip0">
<rect width="364" height="366" fill="white"/>
</clipPath>
</defs>
</svg>
