<svg width="390" height="317" viewBox="0 0 390 317" fill="none" xmlns="http://www.w3.org/2000/svg">
<g clip-path="url(#clip0)">
<path d="M281.036 316.624C304.035 316.624 322.679 312.673 322.679 307.799C322.679 302.925 304.035 298.974 281.036 298.974C258.038 298.974 239.393 302.925 239.393 307.799C239.393 312.673 258.038 316.624 281.036 316.624Z" fill="#E6E6E6"/>
<path d="M84.1463 0H28.0486L0 48.6465L28.0486 97.2934H84.1463L112.195 48.6465L84.1463 0Z" fill="#E6E6E6"/>
<path d="M31.1971 91.8329H80.9979L105.898 48.6466L80.9979 5.46034H31.1971L6.29663 48.6466L31.1971 91.8329Z" fill="white"/>
<path d="M30.5956 38.0642C31.8644 38.0642 32.893 37.0342 32.893 35.7636C32.893 34.4931 31.8644 33.4631 30.5956 33.4631C29.3267 33.4631 28.2981 34.4931 28.2981 35.7636C28.2981 37.0342 29.3267 38.0642 30.5956 38.0642Z" fill="#E2E2E2"/>
<path d="M30.5956 50.9472C31.8644 50.9472 32.893 49.9172 32.893 48.6466C32.893 47.3761 31.8644 46.3461 30.5956 46.3461C29.3267 46.3461 28.2981 47.3761 28.2981 48.6466C28.2981 49.9172 29.3267 50.9472 30.5956 50.9472Z" fill="#E2E2E2"/>
<path d="M30.5956 63.8302C31.8644 63.8302 32.893 62.8002 32.893 61.5296C32.893 60.2591 31.8644 59.2291 30.5956 59.2291C29.3267 59.2291 28.2981 60.2591 28.2981 61.5296C28.2981 62.8002 29.3267 63.8302 30.5956 63.8302Z" fill="#E2E2E2"/>
<path d="M83.8968 33.9232H40.2449V37.6041H83.8968V33.9232Z" fill="#E2E2E2"/>
<path d="M83.8968 46.8062H40.2449V50.4871H83.8968V46.8062Z" fill="#E2E2E2"/>
<path d="M83.8968 59.6892H40.2449V63.37H83.8968V59.6892Z" fill="#E2E2E2"/>
<path d="M361.952 0H305.854L277.805 48.6465L305.854 97.2934H361.952L390 48.6465L361.952 0Z" fill="#E6E6E6"/>
<path d="M309.002 91.8329H358.803L383.703 48.6466L358.803 5.46034H309.002L284.102 48.6466L309.002 91.8329Z" fill="white"/>
<path d="M308.401 38.0642C309.67 38.0642 310.698 37.0342 310.698 35.7636C310.698 34.4931 309.67 33.4631 308.401 33.4631C307.132 33.4631 306.103 34.4931 306.103 35.7636C306.103 37.0342 307.132 38.0642 308.401 38.0642Z" fill="#E2E2E2"/>
<path d="M308.401 50.9472C309.67 50.9472 310.698 49.9172 310.698 48.6466C310.698 47.3761 309.67 46.3461 308.401 46.3461C307.132 46.3461 306.103 47.3761 306.103 48.6466C306.103 49.9172 307.132 50.9472 308.401 50.9472Z" fill="#E2E2E2"/>
<path d="M308.401 63.8302C309.67 63.8302 310.698 62.8002 310.698 61.5296C310.698 60.2591 309.67 59.2291 308.401 59.2291C307.132 59.2291 306.103 60.2591 306.103 61.5296C306.103 62.8002 307.132 63.8302 308.401 63.8302Z" fill="#E2E2E2"/>
<path d="M361.702 33.9232H318.05V37.6041H361.702V33.9232Z" fill="#E2E2E2"/>
<path d="M361.702 46.8062H318.05V50.4871H361.702V46.8062Z" fill="#E2E2E2"/>
<path d="M361.702 59.6892H318.05V63.37H361.702V59.6892Z" fill="#E2E2E2"/>
<path d="M221.703 0.472427H166.15L138.374 48.6465L166.15 96.821H221.703L249.48 48.6465L221.703 0.472427Z" fill="#E6E6E6"/>
<path d="M169.268 91.4135H218.585L243.244 48.6466L218.585 5.87973H169.268L144.61 48.6466L169.268 91.4135Z" fill="white"/>
<path d="M168.672 38.167C169.929 38.167 170.948 37.147 170.948 35.8888C170.948 34.6305 169.929 33.6106 168.672 33.6106C167.416 33.6106 166.397 34.6305 166.397 35.8888C166.397 37.147 167.416 38.167 168.672 38.167Z" fill="#02C916"/>
<path d="M168.672 50.9248C169.929 50.9248 170.948 49.9048 170.948 48.6466C170.948 47.3884 169.929 46.3684 168.672 46.3684C167.416 46.3684 166.397 47.3884 166.397 48.6466C166.397 49.9048 167.416 50.9248 168.672 50.9248Z" fill="#02C916"/>
<path d="M168.672 63.6827C169.929 63.6827 170.948 62.6627 170.948 61.4045C170.948 60.1463 169.929 59.1263 168.672 59.1263C167.416 59.1263 166.397 60.1463 166.397 61.4045C166.397 62.6627 167.416 63.6827 168.672 63.6827Z" fill="#02C916"/>
<path d="M221.456 34.0662H178.228V37.7113H221.456V34.0662Z" fill="#02C916"/>
<path d="M221.456 46.8241H178.228V50.4692H221.456V46.8241Z" fill="#02C916"/>
<path d="M221.456 59.582H178.228V63.2271H221.456V59.582Z" fill="#02C916"/>
<path d="M272.191 84.7563C272.191 84.7563 276.741 101.753 280.607 102.882C284.474 104.012 259.983 107.539 259.983 107.539L259.443 92.3075L272.191 84.7563Z" fill="#A0616A"/>
<path d="M252.19 190.779L256.719 200.497L261.895 195.314L258.66 187.539L252.19 190.779Z" fill="#A0616A"/>
<path d="M308.48 184.948L307.186 194.018L303.304 191.427V181.708L308.48 184.948Z" fill="#A0616A"/>
<path d="M252.837 282.777L250.896 298.327L261.248 298.974L259.954 282.777H252.837Z" fill="#A0616A"/>
<path d="M309.774 282.777L311.715 298.327L301.363 298.974L302.657 282.777H309.774Z" fill="#A0616A"/>
<path d="M257.366 185.596C257.366 185.596 252.837 197.905 253.484 203.088C254.131 208.271 248.308 234.834 250.249 237.426C252.19 240.017 252.19 243.257 250.896 245.2C249.602 247.144 248.955 244.553 249.602 247.792C250.249 251.031 248.955 267.228 249.602 269.82C250.249 272.411 247.661 273.059 248.955 275.651C250.249 278.242 252.19 286.017 252.19 286.017L260.601 285.369L261.895 278.242C261.895 278.242 265.777 277.594 265.13 273.707C264.483 269.82 268.365 243.905 268.365 243.905L279.364 207.623L294.893 240.665C294.893 240.665 295.54 263.989 297.481 266.58C299.422 269.172 295.54 276.299 297.481 278.89C299.422 281.482 301.363 286.017 301.363 286.017H311.068V280.834C311.068 280.834 316.891 277.594 311.068 267.876L309.774 212.159L305.892 185.596H257.366Z" fill="#2F2E41"/>
<path d="M262.542 296.383C262.542 296.383 258.013 294.439 256.072 295.735C254.131 297.031 252.837 295.087 252.837 295.087C252.837 295.087 250.249 293.791 249.602 295.735C249.104 297.1 248.453 298.405 247.661 299.622C247.661 299.622 243.779 306.749 246.367 308.693C248.955 310.636 250.896 311.932 250.896 313.228C250.896 314.524 263.189 315.171 263.189 313.228C263.189 311.284 262.542 296.383 262.542 296.383Z" fill="#2F2E41"/>
<path d="M300.069 296.383C300.069 296.383 304.598 294.439 306.539 295.735C308.48 297.031 309.774 295.087 309.774 295.087C309.774 295.087 312.362 293.791 313.009 295.735C313.507 297.1 314.158 298.405 314.951 299.622C314.951 299.622 318.833 306.749 316.245 308.693C313.656 310.636 311.715 311.932 311.715 313.228C311.715 314.524 299.422 315.171 299.422 313.228C299.422 311.284 300.069 296.383 300.069 296.383Z" fill="#2F2E41"/>
<path d="M295.864 106.23C295.864 106.23 277.747 99.1036 268.042 101.695C258.337 104.287 242.161 115.948 242.808 118.54C243.455 121.132 249.602 151.258 249.602 151.258C249.602 151.258 249.602 169.399 252.837 175.229C256.072 181.06 256.719 185.596 256.719 185.596L256.072 192.074C256.072 192.074 272.894 193.37 281.953 189.483C291.011 185.596 305.892 188.187 305.892 188.187C305.892 188.187 298.128 155.793 294.246 150.61C290.364 145.427 295.864 106.23 295.864 106.23Z" fill="#575A89"/>
<path d="M248.308 116.92L242.485 118.864C242.485 118.864 237.308 126.639 237.308 131.822C237.308 137.005 236.661 169.399 239.25 173.934C241.838 178.469 244.426 187.539 248.308 188.187L252.837 194.018L260.601 188.835L258.013 183.004L248.308 116.92Z" fill="#575A89"/>
<path d="M287.129 107.202L293.565 105.392L296.187 106.554C296.187 106.554 305.892 116.272 309.127 125.991C312.362 135.709 313.009 173.286 313.009 173.286C313.009 173.286 313.656 175.229 313.009 175.877C312.362 176.525 311.715 177.173 311.715 178.469C311.715 179.765 310.421 182.356 310.421 182.356L309.774 187.539L303.304 186.891C303.304 186.891 291.011 150.61 291.011 142.188C291.011 133.765 287.129 107.202 287.129 107.202Z" fill="#575A89"/>
<path d="M285.324 102.924C285.324 102.924 285.511 99.7515 283.57 99.1036C281.629 98.4557 279.041 95.2163 273.865 96.5121C268.689 97.8079 255.101 99.7515 254.454 101.047C253.807 102.343 251.866 102.991 252.513 104.287C253.16 105.582 254.454 104.287 253.16 105.582C251.866 106.878 251.219 106.23 251.866 106.878C252.513 107.526 252.513 110.765 252.513 110.765C252.513 110.765 262.218 117.244 264.806 116.596C267.395 115.948 282.841 102.345 282.841 102.345L285.324 102.924Z" fill="#575A89"/>
<path opacity="0.2" d="M252.478 145.318L251.823 167.387L256.999 182.935L252.478 145.318Z" fill="black"/>
<path opacity="0.2" d="M297.133 135.676L302.987 156.962L301.634 173.296L297.133 135.676Z" fill="black"/>
<path d="M265.296 97.2933C272.88 97.2933 279.029 91.1364 279.029 83.5414C279.029 75.9465 272.88 69.7896 265.296 69.7896C257.711 69.7896 251.562 75.9465 251.562 83.5414C251.562 91.1364 257.711 97.2933 265.296 97.2933Z" fill="#A0616A"/>
<path d="M253.609 82.5928C254.578 85.0721 255.547 87.5513 256.516 90.0305C257.707 93.0784 259.072 96.3392 261.864 98.0402C265.312 100.14 269.917 99.1163 273.252 96.8414C279.205 92.7806 282.233 84.8523 280.503 77.8502C278.774 70.848 272.405 65.2465 265.248 64.4324L265.11 66.9218L262.059 64.3613C261.248 65.9977 258.682 66.3611 257.449 65.0142C258.25 66.6775 257.325 68.7062 255.99 69.9803C254.349 71.5456 249.656 73.4269 249.85 76.2251C249.98 78.0924 252.852 80.6576 253.609 82.5928Z" fill="#2F2E41"/>
</g>
<defs>
<clipPath id="clip0">
<rect width="390" height="316.624" fill="white"/>
</clipPath>
</defs>
</svg>
